<svg width="1075" height="828" viewBox="0 0 1075 828" fill="none" xmlns="http://www.w3.org/2000/svg">
<path d="M537 428C647.457 428 737 517.543 737 628C737 738.457 647.457 828 537 828C426.543 828 337 738.457 337 628C337 517.543 426.543 428 537 428ZM200 0C310.457 0 400 89.5431 400 200C400 310.457 310.457 400 200 400C89.5431 400 0 310.457 0 200C0 89.5431 89.5431 0 200 0ZM875 0C985.457 0 1075 89.5431 1075 200C1075 310.457 985.457 400 875 400C764.543 400 675 310.457 675 200C675 89.5431 764.543 0 875 0Z" fill="black"/>
</svg>
