<svg xmlns="http://www.w3.org/2000/svg"  viewBox="0 0 100 100" width="100px" height="100px"><path d="M 25.125 17 C 20.637 17 17 20.637 17 25.125 L 17 74.875 C 17 79.362 20.637 83 25.125 83 L 74.875 83 C 79.362 83 83 79.361047 83 74.873047 L 83 25.125 C 83 20.637 79.361047 17 74.873047 17 L 25.125 17 z M 25.125 19.099609 L 74.873047 19.099609 C 78.195047 19.099609 80.898438 21.803953 80.898438 25.126953 L 80.898438 74.876953 C 80.898438 78.198953 78.195047 80.900391 74.873047 80.900391 L 25.125 80.900391 C 21.802 80.900391 19.099609 78.198953 19.099609 74.876953 L 19.099609 25.126953 C 19.099609 21.803953 21.802 19.099609 25.125 19.099609 z M 26.537109 22 C 24.036855 22 22 24.036855 22 26.537109 L 22 29.5 A 0.50005 0.50005 0 1 0 23 29.5 L 23 26.537109 C 23 24.577363 24.577363 23 26.537109 23 L 31.5 23 A 0.50005 0.50005 0 1 0 31.5 22 L 26.537109 22 z M 36.5 22 A 0.50005 0.50005 0 1 0 36.5 23 L 46.5 23 A 0.50005 0.50005 0 1 0 46.5 22 L 36.5 22 z M 49.5 22 A 0.50005 0.50005 0 1 0 49.5 23 L 52.5 23 A 0.50005 0.50005 0 1 0 52.5 22 L 49.5 22 z M 69 22 A 0.50005 0.50005 0 1 0 69 23 L 73.462891 23 C 75.422637 23 77 24.577363 77 26.537109 L 77 47.464844 A 0.50005 0.50005 0 0 0 77 47.5 L 77 48 L 77 73.462891 C 77 75.422637 75.422637 77 73.462891 77 L 61 77 A 0.50005 0.50005 0 1 0 61 78 L 73.462891 78 C 75.963145 78 78 75.963145 78 73.462891 L 78 48.035156 A 0.50005 0.50005 0 0 0 78 48 L 78 47.5 L 78 26.537109 C 78 24.036855 75.963145 22 73.462891 22 L 69 22 z M 50 27.5 C 37.579507 27.5 27.5 37.579516 27.5 50 C 27.5 62.420484 37.579507 72.5 50 72.5 C 62.420493 72.5 72.5 62.420484 72.5 50 C 72.5 37.579516 62.420493 27.5 50 27.5 z M 50 28.5 C 61.880053 28.5 71.5 38.119955 71.5 50 C 71.5 61.880045 61.880053 71.5 50 71.5 C 38.119947 71.5 28.5 61.880045 28.5 50 C 28.5 38.119955 38.119947 28.5 50 28.5 z M 46.216797 39.029297 C 40.787298 39.168858 36.822334 40.221793 36.474609 40.316406 L 36.472656 40.316406 C 35.052924 40.703494 34.208001 42.181027 34.59375 43.601562 C 34.979533 45.022222 36.457232 45.868051 37.878906 45.486328 L 37.880859 45.486328 L 37.880859 45.484375 C 37.853359 45.491975 38.120098 45.421505 38.535156 45.330078 C 38.950215 45.238648 39.549608 45.117782 40.298828 44.992188 C 41.797269 44.740999 43.893137 44.474947 46.310547 44.410156 C 51.145367 44.280574 57.250516 44.960149 62.427734 48.109375 L 62.429688 48.109375 C 62.861832 48.371356 63.343413 48.498047 63.818359 48.498047 C 64.722838 48.498047 65.606377 48.037758 66.109375 47.212891 C 66.876068 45.953849 66.471947 44.296727 65.212891 43.53125 C 64.227794 42.932246 63.223551 42.407193 62.207031 41.947266 A 0.50084682 0.50084682 0 1 0 61.792969 42.859375 C 62.774449 43.303448 63.744456 43.809723 64.693359 44.386719 C 65.490303 44.871242 65.741167 45.896401 65.255859 46.693359 C 64.936857 47.216492 64.385881 47.498047 63.818359 47.498047 C 63.521306 47.498047 63.22112 47.419927 62.947266 47.253906 C 57.527484 43.957132 51.235086 43.277489 46.285156 43.410156 C 43.810191 43.476486 41.667966 43.748517 40.132812 44.005859 C 39.365237 44.134531 38.748438 44.258781 38.318359 44.353516 C 37.888281 44.448246 37.68019 44.504181 37.617188 44.521484 L 37.619141 44.519531 C 36.716815 44.761808 35.802811 44.239184 35.558594 43.339844 C 35.314343 42.440379 35.83806 41.526162 36.736328 41.28125 C 37.132695 41.173401 43.9319 39.37621 51.945312 40.257812 A 0.50006936 0.50006936 0 1 0 52.054688 39.263672 C 49.999447 39.037667 48.02663 38.982776 46.216797 39.029297 z M 54.996094 39.708984 A 0.50005 0.50005 0 0 0 54.904297 40.701172 C 56.536009 41.016669 58.1909 41.4578 59.828125 42.056641 A 0.50018397 0.50018397 0 1 0 60.171875 41.117188 C 58.479103 40.498027 56.773991 40.045206 55.095703 39.720703 A 0.50005 0.50005 0 0 0 54.996094 39.708984 z M 46.34375 47.496094 C 41.567685 47.594614 38.057542 48.497682 37.75 48.578125 C 36.50389 48.905323 35.738692 50.175424 36.085938 51.400391 C 36.433388 52.624804 37.738656 53.333138 38.986328 53.005859 C 38.958748 53.013059 39.774574 52.804746 41.060547 52.595703 C 42.346519 52.386661 44.147287 52.166095 46.224609 52.111328 C 50.379255 52.001794 55.629472 52.562838 60.09375 55.169922 L 60.09375 55.171875 C 60.475925 55.394344 60.898861 55.5 61.314453 55.5 C 62.10763 55.5 62.886363 55.112752 63.333984 54.40625 C 64.016035 53.327718 63.648743 51.892818 62.539062 51.244141 C 57.16319 48.104639 51.119815 47.397569 46.34375 47.496094 z M 46.347656 48.521484 C 51.004591 48.426754 56.885076 49.100923 62.033203 52.107422 C 62.685523 52.488744 62.878184 53.257626 62.490234 53.871094 C 62.235862 54.272591 61.783277 54.5 61.314453 54.5 C 61.068045 54.5 60.823481 54.43812 60.597656 54.306641 C 55.893935 51.559725 50.46312 50.998862 46.197266 51.111328 C 44.064338 51.167558 42.220027 51.394543 40.898438 51.609375 C 39.576847 51.824207 38.821 52.015829 38.732422 52.039062 C 37.990094 52.233784 37.243377 51.81254 37.048828 51.126953 C 36.854073 50.43992 37.262017 49.739724 38.003906 49.544922 C 38.258364 49.478362 41.690721 48.61621 46.347656 48.521484 z M 22.492188 48.992188 A 0.50005 0.50005 0 0 0 22 49.5 L 22 73.462891 C 22 75.963145 24.036855 78 26.537109 78 L 29.5 78 A 0.50005 0.50005 0 1 0 29.5 77 L 26.537109 77 C 24.577363 77 23 75.422637 23 73.462891 L 23 49.5 A 0.50005 0.50005 0 0 0 22.492188 48.992188 z M 46.146484 55.085938 C 42.159147 55.171838 39.231927 55.958789 38.972656 56.029297 L 38.970703 56.029297 C 37.912584 56.317392 37.282316 57.420754 37.570312 58.478516 C 37.858437 59.536737 38.964239 60.16739 40.021484 59.880859 L 40.023438 59.878906 L 40.027344 59.878906 C 39.992014 59.888996 40.073674 59.86677 40.167969 59.84375 C 40.262259 59.82073 40.401086 59.78851 40.578125 59.75 C 40.932204 59.67298 41.443281 59.570528 42.078125 59.470703 A 0.50027827 0.50027827 0 0 0 41.921875 58.482422 C 41.265719 58.585597 40.736405 58.690751 40.365234 58.771484 C 40.179649 58.811854 40.033878 58.846144 39.931641 58.871094 C 39.833841 58.894964 39.805295 58.903116 39.759766 58.916016 C 39.223011 59.061485 38.681033 58.752575 38.535156 58.216797 C 38.389154 57.680558 38.698495 57.140045 39.234375 56.994141 C 39.649834 56.881157 50.627171 54.015958 59.152344 59.201172 C 59.628053 59.49091 59.77564 60.095303 59.486328 60.570312 C 59.296299 60.882311 58.972781 61.048828 58.634766 61.048828 C 58.457816 61.048828 58.280312 61.002868 58.119141 60.904297 L 58.119141 60.902344 L 58.117188 60.902344 C 56.517488 59.929802 54.817906 59.270174 53.125 58.835938 A 0.50024408 0.50024408 0 0 0 52.875 59.804688 C 54.488094 60.218451 56.095409 60.844454 57.597656 61.757812 L 57.597656 61.755859 C 57.920485 61.953292 58.281715 62.048828 58.634766 62.048828 C 59.30875 62.048828 59.967826 61.703846 60.341797 61.089844 C 60.912485 60.152853 60.610119 58.917918 59.673828 58.347656 L 59.671875 58.347656 C 55.179508 55.61531 50.133822 55.000038 46.146484 55.085938 z M 47.394531 58.097656 C 46.540298 58.082117 45.726101 58.104167 44.96875 58.150391 A 0.50005 0.50005 0 1 0 45.03125 59.148438 C 46.498548 59.058887 48.182528 59.061808 49.941406 59.267578 A 0.50051158 0.50051158 0 0 0 50.058594 58.273438 C 49.143033 58.166325 48.248764 58.113196 47.394531 58.097656 z M 33.5 77 A 0.50005 0.50005 0 1 0 33.5 78 L 38.5 78 A 0.50005 0.50005 0 1 0 38.5 77 L 33.5 77 z M 43.5 77 A 0.50005 0.50005 0 1 0 43.5 78 L 57.5 78 A 0.50005 0.50005 0 1 0 57.5 77 L 43.5 77 z"/></svg>