<svg xmlns="http://www.w3.org/2000/svg"  viewBox="0 0 100 100" width="100px" height="100px"><path d="M 30.5 17.5 C 23.32 17.5 17.5 23.32 17.5 30.5 L 17.5 69.5 C 17.5 76.68 23.32 82.5 30.5 82.5 L 69.5 82.5 C 76.68 82.5 82.5 76.68 82.5 69.5 L 82.5 30.5 C 82.5 23.32 76.68 17.5 69.5 17.5 L 30.5 17.5 z M 30.5 19.5 L 69.5 19.5 C 75.575 19.5 80.5 24.425 80.5 30.5 L 80.5 69.5 C 80.5 75.575 75.575 80.5 69.5 80.5 L 30.5 80.5 C 24.425 80.5 19.5 75.575 19.5 69.5 L 19.5 30.5 C 19.5 24.425 24.425 19.5 30.5 19.5 z M 33.337891 22.5 C 27.352891 22.5 22.5 27.352891 22.5 33.337891 L 22.5 66.662109 C 22.5 72.647109 27.352891 77.5 33.337891 77.5 L 66.662109 77.5 C 72.648109 77.5 77.5 72.648109 77.5 66.662109 L 77.5 48 C 77.5 47.724 77.276 47.5 77 47.5 C 76.724 47.5 76.5 47.724 76.5 48 L 76.5 66.662109 C 76.5 72.095109 72.095109 76.5 66.662109 76.5 L 33.337891 76.5 C 27.904891 76.5 23.5 72.095109 23.5 66.662109 L 23.5 33.337891 C 23.5 27.904891 27.904891 23.5 33.337891 23.5 L 67 23.5 C 67.276 23.5 67.5 23.276 67.5 23 C 67.5 22.724 67.276 22.5 67 22.5 L 33.337891 22.5 z M 30.5 31 A 0.50005 0.50005 0 0 0 30.085938 31.78125 L 33.824219 37.28125 A 0.50005 0.50005 0 1 0 34.650391 36.71875 L 31.445312 32 L 42.238281 32 L 68.546875 70 L 57.263672 70 L 41.025391 46.207031 A 0.50005 0.50005 0 1 0 40.199219 46.769531 L 44.814453 53.53125 L 30.115234 71.179688 A 0.50005 0.50005 0 0 0 30.5 72 L 34 72 A 0.50005 0.50005 0 0 0 34.382812 71.820312 L 47.001953 56.736328 L 56.587891 70.78125 A 0.50005 0.50005 0 0 0 57 71 L 69.5 71 A 0.50005 0.50005 0 0 0 69.910156 70.214844 L 54.554688 48.035156 L 67.908203 31.822266 A 0.50005 0.50005 0 0 0 67.517578 31.003906 L 64.076172 31.046875 A 0.50005 0.50005 0 0 0 63.695312 31.228516 L 52.445312 44.986328 L 42.910156 31.214844 A 0.50005 0.50005 0 0 0 42.5 31 L 30.5 31 z M 66.451172 32.017578 L 54 47.138672 L 53.0625 45.808594 L 64.322266 32.042969 L 66.451172 32.017578 z M 77 36.078125 C 76.724 36.078125 76.5 36.302125 76.5 36.578125 L 76.5 38.578125 C 76.5 38.854125 76.724 39.078125 77 39.078125 C 77.276 39.078125 77.5 38.855125 77.5 38.578125 L 77.5 36.578125 C 77.5 36.302125 77.276 36.078125 77 36.078125 z M 35.585938 38.494141 A 0.50005 0.50005 0 0 0 35.181641 39.28125 L 37.220703 42.28125 A 0.50005 0.50005 0 1 0 38.046875 41.71875 L 36.009766 38.71875 A 0.50005 0.50005 0 0 0 35.585938 38.494141 z M 77 40.078125 C 76.724 40.078125 76.5 40.302125 76.5 40.578125 L 76.5 44.578125 C 76.5 44.854125 76.724 45.078125 77 45.078125 C 77.276 45.078125 77.5 44.855125 77.5 44.578125 L 77.5 40.578125 C 77.5 40.302125 77.276 40.078125 77 40.078125 z M 38.853516 43.316406 A 0.50005 0.50005 0 0 0 38.464844 44.111328 L 39.109375 45.019531 A 0.50018678 0.50018678 0 1 0 39.925781 44.441406 L 39.28125 43.533203 A 0.50005 0.50005 0 0 0 38.853516 43.316406 z M 45.396484 54.396484 L 46.404297 55.890625 L 33.765625 71 L 31.568359 71 L 45.396484 54.396484 z"/></svg>