<svg width="821" height="818" viewBox="0 0 821 818" fill="none" xmlns="http://www.w3.org/2000/svg">
<path d="M200 418C310.457 418 400 507.543 400 618C400 728.457 310.457 818 200 818C89.5431 818 0 728.457 0 618C0 507.543 89.5431 418 200 418ZM587.633 420.803C630.93 413.477 675.436 420.604 714.28 441.085C753.125 461.566 784.148 494.263 802.563 534.128L621 618L782.869 735.466C757.078 771.007 720.306 797.071 678.229 809.637C636.153 822.202 591.11 820.571 550.053 804.993C508.996 789.416 474.207 760.758 451.055 723.444C427.903 686.13 417.675 642.234 421.95 598.529C426.225 554.825 444.765 513.742 474.709 481.622C504.653 449.502 544.335 428.129 587.633 420.803ZM400 200C400 310.457 310.457 400 200 400C89.5431 400 0 310.457 0 200V0H400V200ZM821 400H421V0L821 400Z" fill="#8C51F9"/>
</svg>
