<svg width="1064" height="906" viewBox="0 0 1064 906" fill="none" xmlns="http://www.w3.org/2000/svg">
<path d="M423.49 46.4375C444.493 4.79497 495.277 -11.9374 536.919 9.06543C578.561 30.0685 595.294 80.8535 574.291 122.496L428.156 412.238L526.311 391.644L824.951 118.927C859.391 87.4768 912.805 89.9008 944.255 124.341C975.705 158.781 973.282 212.196 938.842 243.646L851.49 323.414L962.188 300.188C1007.83 290.611 1052.6 319.85 1062.18 365.495C1071.76 411.141 1042.52 455.909 996.871 465.486L606.137 547.47L238.635 883.071C204.195 914.522 150.78 912.098 119.33 877.658C87.8801 843.218 90.3042 789.803 124.744 758.353L280.956 615.699L101.807 653.289C56.161 662.866 11.3936 633.627 1.81641 587.981C-7.76056 542.336 21.4786 497.569 67.124 487.991L222.179 455.457C223.437 446.559 226.148 437.712 230.419 429.243L423.49 46.4375Z" fill="#FFC285"/>
</svg>
