<svg width="1064" height="906" viewBox="0 0 1064 906" fill="none" xmlns="http://www.w3.org/2000/svg">
<mask id="path-1-inside-1_928_69" fill="white">
<path d="M423.49 46.4375C444.493 4.79497 495.277 -11.9374 536.919 9.06543C578.561 30.0685 595.294 80.8535 574.291 122.496L428.156 412.238L526.311 391.644L824.951 118.927C859.391 87.4768 912.805 89.9008 944.255 124.341C975.705 158.781 973.282 212.196 938.842 243.646L851.49 323.414L962.188 300.188C1007.83 290.611 1052.6 319.85 1062.18 365.495C1071.76 411.141 1042.52 455.909 996.871 465.486L606.137 547.47L238.635 883.071C204.195 914.522 150.78 912.098 119.33 877.658C87.8801 843.218 90.3042 789.803 124.744 758.353L280.956 615.699L101.807 653.289C56.161 662.866 11.3936 633.627 1.81641 587.981C-7.76056 542.336 21.4786 497.569 67.124 487.991L222.179 455.457C223.437 446.559 226.148 437.712 230.419 429.243L423.49 46.4375Z"/>
</mask>
<path d="M423.49 46.4375C444.493 4.79497 495.277 -11.9374 536.919 9.06543C578.561 30.0685 595.294 80.8535 574.291 122.496L428.156 412.238L526.311 391.644L824.951 118.927C859.391 87.4768 912.805 89.9008 944.255 124.341C975.705 158.781 973.282 212.196 938.842 243.646L851.49 323.414L962.188 300.188C1007.83 290.611 1052.6 319.85 1062.18 365.495C1071.76 411.141 1042.52 455.909 996.871 465.486L606.137 547.47L238.635 883.071C204.195 914.522 150.78 912.098 119.33 877.658C87.8801 843.218 90.3042 789.803 124.744 758.353L280.956 615.699L101.807 653.289C56.161 662.866 11.3936 633.627 1.81641 587.981C-7.76056 542.336 21.4786 497.569 67.124 487.991L222.179 455.457C223.437 446.559 226.148 437.712 230.419 429.243L423.49 46.4375Z" fill="#FFB367"/>
<path d="M423.49 46.4375L426.169 47.7885L426.169 47.7885L423.49 46.4375ZM536.919 9.06543L538.27 6.38684L538.27 6.38684L536.919 9.06543ZM574.291 122.496L576.97 123.847L576.97 123.847L574.291 122.496ZM428.156 412.238L425.478 410.887L422.67 416.455L428.772 415.174L428.156 412.238ZM526.311 391.644L526.927 394.58L527.728 394.411L528.334 393.859L526.311 391.644ZM824.951 118.927L822.928 116.711L822.928 116.711L824.951 118.927ZM944.255 124.341L946.47 122.318L946.47 122.318L944.255 124.341ZM938.842 243.646L940.865 245.862L940.865 245.862L938.842 243.646ZM851.49 323.414L849.467 321.199L841.356 328.606L852.106 326.35L851.49 323.414ZM962.188 300.188L962.804 303.125L962.805 303.125L962.188 300.188ZM1062.18 365.495L1065.11 364.879L1065.11 364.879L1062.18 365.495ZM996.871 465.486L997.487 468.422L997.487 468.422L996.871 465.486ZM606.137 547.47L605.521 544.534L604.719 544.702L604.114 545.254L606.137 547.47ZM238.635 883.071L240.658 885.287L240.658 885.287L238.635 883.071ZM119.33 877.658L117.115 879.681L117.115 879.681L119.33 877.658ZM124.744 758.353L126.767 760.568L126.767 760.568L124.744 758.353ZM280.956 615.699L282.979 617.914L291.09 610.508L280.34 612.763L280.956 615.699ZM101.807 653.289L102.423 656.225L102.423 656.225L101.807 653.289ZM1.81641 587.981L-1.11967 588.597L-1.11966 588.597L1.81641 587.981ZM67.124 487.991L67.7401 490.927L67.7401 490.927L67.124 487.991ZM222.179 455.457L222.795 458.393L224.855 457.961L225.149 455.877L222.179 455.457ZM230.419 429.243L227.74 427.892L227.74 427.892L230.419 429.243ZM423.49 46.4375L426.169 47.7885C446.425 7.62526 495.405 -8.51265 535.568 11.744L536.919 9.06543L538.27 6.38684C495.148 -15.3621 442.56 1.96469 420.812 45.0865L423.49 46.4375ZM536.919 9.06543L535.568 11.744C575.731 32.001 591.869 80.9819 571.612 121.145L574.291 122.496L576.97 123.847C598.718 80.7251 581.392 28.136 538.27 6.38684L536.919 9.06543ZM574.291 122.496L571.612 121.145L425.478 410.887L428.156 412.238L430.835 413.589L576.97 123.847L574.291 122.496ZM428.156 412.238L428.772 415.174L526.927 394.58L526.311 391.644L525.695 388.707L427.54 409.302L428.156 412.238ZM526.311 391.644L528.334 393.859L826.974 121.142L824.951 118.927L822.928 116.711L524.288 389.428L526.311 391.644ZM824.951 118.927L826.974 121.142C860.191 90.8094 911.707 93.1473 942.04 126.364L944.255 124.341L946.47 122.318C913.903 86.6544 858.592 84.1442 822.928 116.711L824.951 118.927ZM944.255 124.341L942.04 126.364C972.372 159.581 970.035 211.098 936.819 241.431L938.842 243.646L940.865 245.862C976.528 213.294 979.037 157.982 946.47 122.318L944.255 124.341ZM938.842 243.646L936.819 241.431L849.467 321.199L851.49 323.414L853.513 325.629L940.865 245.862L938.842 243.646ZM851.49 323.414L852.106 326.35L962.804 303.125L962.188 300.188L961.572 297.252L850.874 320.478L851.49 323.414ZM962.188 300.188L962.805 303.125C1006.83 293.887 1050.01 322.087 1059.24 366.111L1062.18 365.495L1065.11 364.879C1055.2 317.612 1008.84 287.335 961.572 297.252L962.188 300.188ZM1062.18 365.495L1059.24 366.111C1068.48 410.135 1040.28 453.313 996.255 462.55L996.871 465.486L997.487 468.422C1044.75 458.505 1075.03 412.146 1065.11 364.879L1062.18 365.495ZM996.871 465.486L996.255 462.55L605.521 544.534L606.137 547.47L606.753 550.406L997.487 468.422L996.871 465.486ZM606.137 547.47L604.114 545.254L236.612 880.856L238.635 883.071L240.658 885.287L608.16 549.685L606.137 547.47ZM238.635 883.071L236.612 880.856C203.395 911.189 151.878 908.852 121.545 875.635L119.33 877.658L117.115 879.681C149.682 915.345 204.994 917.854 240.658 885.287L238.635 883.071ZM119.33 877.658L121.545 875.635C91.2127 842.418 93.5506 790.901 126.767 760.568L124.744 758.353L122.721 756.137C87.0578 788.705 84.5475 844.017 117.115 879.681L119.33 877.658ZM124.744 758.353L126.767 760.568L282.979 617.914L280.956 615.699L278.933 613.484L122.721 756.137L124.744 758.353ZM280.956 615.699L280.34 612.763L101.191 650.353L101.807 653.289L102.423 656.225L281.572 618.635L280.956 615.699ZM101.807 653.289L101.191 650.353C57.1665 659.59 13.9895 631.39 4.75247 587.365L1.81641 587.981L-1.11966 588.597C8.7978 635.865 55.1555 666.143 102.423 656.225L101.807 653.289ZM1.81641 587.981L4.75248 587.365C-4.48428 543.341 23.7162 500.164 67.7401 490.927L67.124 487.991L66.508 485.055C19.241 494.973 -11.0368 541.33 -1.11967 588.597L1.81641 587.981ZM67.124 487.991L67.7401 490.927L222.795 458.393L222.179 455.457L221.563 452.521L66.508 485.055L67.124 487.991ZM222.179 455.457L225.149 455.877C226.362 447.299 228.976 438.767 233.098 430.594L230.419 429.243L227.74 427.892C223.32 436.657 220.511 445.819 219.208 455.037L222.179 455.457ZM230.419 429.243L233.098 430.594L426.169 47.7885L423.49 46.4375L420.812 45.0865L227.74 427.892L230.419 429.243Z" fill="black" fill-opacity="0.65" mask="url(#path-1-inside-1_928_69)"/>
</svg>
