<svg width="1356" height="906" viewBox="0 0 1356 906" fill="none" xmlns="http://www.w3.org/2000/svg">
<path d="M618.49 46.4376C639.493 4.79504 690.277 -11.9373 731.919 9.06549C773.562 30.0686 790.294 80.8535 769.291 122.496L623.157 412.238L721.311 391.644L1019.95 118.927C1054.39 87.4769 1107.81 89.9009 1139.26 124.341C1170.71 158.781 1168.28 212.196 1133.84 243.647L1046.49 323.414L1157.19 300.189C1202.83 290.611 1247.6 319.85 1257.18 365.495C1266.76 411.141 1237.52 455.909 1191.87 465.486L801.137 547.47L433.635 883.071C399.195 914.522 345.78 912.099 314.33 877.658C282.88 843.218 285.304 789.803 319.744 758.353L475.956 615.699L296.807 653.289C251.161 662.867 206.394 633.627 196.817 587.982C187.24 542.336 216.479 497.569 262.124 487.991L417.179 455.457C418.437 446.559 421.148 437.712 425.419 429.243L618.49 46.4376Z" fill="#FFC285"/>
<path d="M38.6 397.4C39.3 424.7 40 575.9 70.8 666.9C85.5 709.6 110.7 725 132.4 719.4C173 708.9 202.4 624.9 131.7 507.3L34.4 344.9C0.0999994 287.5 37.9 231.5 100.9 231.5C124 231.5 132.4 237.1 152 244.1C161.8 246.9 170.9 248.3 170.9 242V235.7H179.3V477.2L181.4 480.7L189.8 493.3C210.1 526.2 219.2 574.5 215 615.8C208.7 675.3 175.8 729.2 111.4 729.2C84.1 729.2 57.5 720.1 30.9 701.9V397.4H38.6ZM170.9 463.2C170.9 417.7 162.5 241.3 101.6 239.2C73.6 237.8 58.9 267.9 74.3 300.1C77.1 306.4 81.3 313.4 85.5 320.4L170.9 463.2ZM309.413 260.2C289.813 296.6 280.713 389 282.813 481.4C282.113 513.6 280.713 721.5 334.613 721.5C359.113 722.2 368.213 662.7 368.213 642.4V507.3C368.213 493.3 361.913 162.2 309.413 260.2ZM376.613 235.7V708.2C363.313 718.7 347.913 730.6 333.913 729.9C276.513 729.2 242.213 588.5 235.913 544.4C227.513 490.5 223.313 421.2 228.913 368.7C235.913 300.8 263.213 236.4 319.913 235.7H359.813H376.613ZM504.713 235.7C634.213 235.7 600.612 385.5 530.613 465.3C542.513 515.7 562.113 774.7 648.213 774.7V779.6C557.913 783.1 496.313 564.7 478.113 494C480.213 493.3 484.413 491.9 485.813 490.5C487.913 488.4 490.013 487 492.113 484.9C544.613 431.7 564.913 242 493.513 242H492.813H492.113H491.413L490.713 242.7H490.013H489.313H488.613C480.213 244.1 473.213 250.4 473.213 257.4V704C473.213 712.4 482.312 719.4 493.513 719.4V725.7H399.713V719.4C410.213 719.4 419.313 712.4 419.313 704V257.4V256.7V256V255.3V254.6H418.613V253.9V253.2V252.5H417.912V251.8V251.1H417.213V250.4H416.513V249.7C415.813 249 415.813 249 415.813 249L415.113 248.3C413.713 246.9 411.613 245.5 409.513 244.1C408.813 244.1 408.113 244.1 408.113 243.4H407.413H406.713H406.013V242.7H405.313H404.613H403.913H403.213H402.513H401.813L401.113 242H400.413H399.713V235.7H504.713ZM767.973 699.8C770.773 711 784.073 719.4 799.473 719.4V725.7H688.873V719.4C690.273 719.4 698.673 719.4 700.073 719.4C704.273 719.4 708.473 718.7 712.673 714.5C715.473 711.7 716.173 708.2 716.173 704.7L660.173 318.3L639.173 503.1H651.773H668.573L697.273 700.5H688.173L672.773 596.9C667.873 563.3 656.673 538.8 636.373 524.8C630.073 575.2 606.273 719.4 668.573 719.4V725.7H599.273L626.573 519.2C619.573 514.3 609.073 512.2 599.273 512.2V503.1H628.673L655.973 267.9V266.5V257.4C655.973 249 646.873 242 635.673 242V235.7H702.173L767.973 699.8ZM842.189 342.1V239.9C791.089 250.4 785.489 420.5 785.489 492.6C785.489 526.9 785.489 489.1 785.489 507.3H777.789V236.4H785.489V242C786.189 253.9 812.789 241.3 818.389 239.9C846.389 230.1 891.889 230.1 919.889 239.9C924.789 241.3 952.089 253.9 952.089 242V236.4H960.489V507.3H952.089C952.089 489.1 952.089 526.9 952.089 492.6C952.089 420.5 947.189 250.4 896.089 239.9V704C896.089 712.4 905.189 719.4 915.689 719.4V725.7H821.889V719.4C833.089 719.4 842.189 712.4 842.189 704V342.1ZM1057.95 260.2C1038.35 296.6 1029.25 389 1031.35 481.4C1030.65 513.6 1029.25 721.5 1083.15 721.5C1107.65 722.2 1116.75 662.7 1116.75 642.4V507.3C1116.75 493.3 1110.45 162.2 1057.95 260.2ZM1125.15 235.7V708.2C1111.85 718.7 1096.45 730.6 1082.45 729.9C1025.05 729.2 990.748 588.5 984.448 544.4C976.048 490.5 971.848 421.2 977.448 368.7C984.448 300.8 1011.75 236.4 1068.45 235.7H1108.35H1125.15ZM1167.85 254.6C1167.85 246.2 1158.75 242 1148.25 242V236.4H1242.05V242C1230.85 242 1221.75 246.2 1221.75 254.6V351.9H1275.65V257.4C1275.65 249 1267.25 242 1256.05 242V236.4H1349.85V242C1339.35 242 1330.25 249 1330.25 257.4V704C1330.25 712.4 1339.35 719.4 1349.85 719.4V725.7H1256.05V719.4C1267.25 719.4 1275.65 712.4 1275.65 704V360.3H1221.75V704C1221.75 712.4 1230.85 719.4 1242.05 719.4V725.7H1148.25V719.4C1158.75 719.4 1167.85 712.4 1167.85 704V254.6Z" fill="url(#paint0_linear_931_80)"/>
<defs>
<linearGradient id="paint0_linear_931_80" x1="684" y1="-184.164" x2="684" y2="1063.33" gradientUnits="userSpaceOnUse">
<stop offset="0.355805"/>
<stop offset="1"/>
</linearGradient>
</defs>
</svg>
