<svg width="82" height="70" viewBox="0 0 82 70" fill="none" xmlns="http://www.w3.org/2000/svg">
<path d="M32.5967 3.57422C34.2133 0.369119 38.122 -0.918239 41.3271 0.698242C44.5324 2.31484 45.8207 6.22347 44.2041 9.42871L32.9551 31.7295L40.5117 30.1436L63.4971 9.1543C66.1479 6.73358 70.2599 6.91949 72.6807 9.57031C75.1014 12.2212 74.9145 16.3332 72.2637 18.7539L65.54 24.8926L74.0605 23.1055C77.5737 22.3683 81.0195 24.6188 81.7568 28.1318C82.494 31.6451 80.2437 35.0909 76.7305 35.8281L46.6543 42.1387L18.3682 67.9697C15.7174 70.3904 11.6063 70.2043 9.18555 67.5537C6.76481 64.9028 6.95167 60.7908 9.60254 58.3701L21.625 47.3906L7.83691 50.2842C4.32357 51.0213 0.877792 48.7702 0.140625 45.2568C-0.596466 41.7435 1.65368 38.2977 5.16699 37.5605L17.1035 35.0557C17.2004 34.3712 17.4077 33.6905 17.7363 33.0391L32.5967 3.57422Z" fill="black"/>
</svg>
