<svg width="316" height="316" viewBox="0 0 316 316" fill="none" xmlns="http://www.w3.org/2000/svg">
<path d="M238 202.68V111C238 99.7023 225.77 92.6412 215.986 98.2901L163.461 128.615C158.266 131.614 151.83 131.456 146.79 128.206L105.46 101.554C102.875 99.8867 99.8642 99.0002 96.7885 99.0002H93.7526C78.0185 99.0002 71.7338 119.328 84.7225 128.208L212.97 215.888C223.589 223.148 238 215.543 238 202.68Z" fill="#EDE7E7"/>
<path d="M135 162.5L176.5 191L231.5 125L236.5 107L135 162.5Z" fill="#A5A5A5"/>
<path d="M78 199.099V107.42C78 96.1223 90.2303 89.0611 100.014 94.71L152.539 125.035C157.734 128.034 164.17 127.876 169.21 124.625L210.54 97.9735C213.125 96.3066 216.136 95.4201 219.212 95.4201H222.247C237.982 95.4201 244.266 115.748 231.277 124.628L103.03 212.308C92.4108 219.568 78 211.963 78 199.099Z" fill="white"/>
</svg>
