<svg width="1064" height="1117" viewBox="0 0 1064 1117" fill="none" xmlns="http://www.w3.org/2000/svg">
<path d="M423.49 46.4502C444.493 4.80778 495.278 -11.9239 536.92 9.0791C578.562 30.0822 595.294 80.8672 574.291 122.51L428.156 412.252L698.293 355.571L744.4 83.2666C752.187 37.2819 795.777 6.31593 841.762 14.1025C887.746 21.8893 918.713 65.48 910.927 111.465L875.904 318.305L962.189 300.201C1007.83 290.624 1052.6 319.863 1062.18 365.509C1071.76 411.154 1042.52 455.922 996.871 465.499L845.607 497.237L752.624 1046.4C744.838 1092.38 701.247 1123.35 655.263 1115.56C609.278 1107.77 578.311 1064.18 586.098 1018.2L667.996 534.504L101.807 653.303C56.161 662.88 11.3946 633.641 1.81738 587.995C-7.75979 542.349 21.4793 497.582 67.125 488.005L222.18 455.471C223.438 446.573 226.148 437.726 230.419 429.257L423.49 46.4502Z" fill="white"/>
</svg>
